<mxfile host="app.diagrams.net" modified="2023-09-01T21:44:34.437Z" agent="Mozilla/5.0 (Windows NT 10.0; Win64; x64) AppleWebKit/537.36 (KHTML, like Gecko) Chrome/116.0.0.0 Safari/537.36" etag="OVcqzyZQoaZrLW_b-vMI" version="21.6.9" type="device">
  <diagram name="Page-1" id="WupagzJ-WfokinHtZOU2">
    <mxGraphModel dx="2514" dy="2051" grid="1" gridSize="10" guides="1" tooltips="1" connect="1" arrows="1" fold="1" page="1" pageScale="1" pageWidth="827" pageHeight="1169" math="0" shadow="0">
      <root>
        <mxCell id="0" />
        <mxCell id="1" parent="0" />
        <mxCell id="-ZYimBQSAgGT6lgqVuGh-11" style="edgeStyle=orthogonalEdgeStyle;rounded=0;orthogonalLoop=1;jettySize=auto;html=1;entryX=0.5;entryY=0;entryDx=0;entryDy=0;fontSize=13;fontStyle=1" edge="1" parent="1" source="-ZYimBQSAgGT6lgqVuGh-6" target="-ZYimBQSAgGT6lgqVuGh-8">
          <mxGeometry relative="1" as="geometry" />
        </mxCell>
        <mxCell id="-ZYimBQSAgGT6lgqVuGh-6" value="" style="ellipse;whiteSpace=wrap;html=1;aspect=fixed;fillColor=#030303;fontSize=13;fontStyle=1" vertex="1" parent="1">
          <mxGeometry x="182.87" y="-100" width="30" height="30" as="geometry" />
        </mxCell>
        <mxCell id="-ZYimBQSAgGT6lgqVuGh-112" style="edgeStyle=orthogonalEdgeStyle;rounded=0;orthogonalLoop=1;jettySize=auto;html=1;fontSize=13;fontStyle=1" edge="1" parent="1" source="-ZYimBQSAgGT6lgqVuGh-7">
          <mxGeometry relative="1" as="geometry">
            <mxPoint x="198" y="140" as="targetPoint" />
          </mxGeometry>
        </mxCell>
        <mxCell id="-ZYimBQSAgGT6lgqVuGh-7" value="Display Menu" style="rounded=1;whiteSpace=wrap;html=1;fillColor=#f8cecc;strokeColor=#b85450;fontSize=13;fontStyle=1" vertex="1" parent="1">
          <mxGeometry x="151.75" y="60" width="92.25" height="30" as="geometry" />
        </mxCell>
        <mxCell id="-ZYimBQSAgGT6lgqVuGh-12" style="edgeStyle=orthogonalEdgeStyle;rounded=0;orthogonalLoop=1;jettySize=auto;html=1;entryX=0.5;entryY=0;entryDx=0;entryDy=0;fontSize=13;fontStyle=1" edge="1" parent="1" source="-ZYimBQSAgGT6lgqVuGh-8" target="-ZYimBQSAgGT6lgqVuGh-7">
          <mxGeometry relative="1" as="geometry" />
        </mxCell>
        <mxCell id="-ZYimBQSAgGT6lgqVuGh-8" value="Check for Records and Seed Database if Empty" style="rounded=1;whiteSpace=wrap;html=1;fillColor=#dae8fc;strokeColor=#6c8ebf;fontSize=13;fontStyle=1" vertex="1" parent="1">
          <mxGeometry x="115.12" y="-20" width="165.5" height="30" as="geometry" />
        </mxCell>
        <mxCell id="-ZYimBQSAgGT6lgqVuGh-64" style="edgeStyle=orthogonalEdgeStyle;rounded=0;orthogonalLoop=1;jettySize=auto;html=1;entryX=0.5;entryY=0;entryDx=0;entryDy=0;fontSize=13;fontStyle=1" edge="1" parent="1" source="-ZYimBQSAgGT6lgqVuGh-13" target="-ZYimBQSAgGT6lgqVuGh-63">
          <mxGeometry relative="1" as="geometry">
            <Array as="points">
              <mxPoint x="198" y="180" />
              <mxPoint x="198" y="180" />
            </Array>
          </mxGeometry>
        </mxCell>
        <mxCell id="-ZYimBQSAgGT6lgqVuGh-13" value="Get User Choice (A)" style="rounded=1;whiteSpace=wrap;html=1;fillColor=#f8cecc;strokeColor=#b85450;fontSize=13;fontStyle=1" vertex="1" parent="1">
          <mxGeometry x="151.75" y="140" width="118.25" height="30" as="geometry" />
        </mxCell>
        <mxCell id="-ZYimBQSAgGT6lgqVuGh-37" style="edgeStyle=orthogonalEdgeStyle;rounded=0;orthogonalLoop=1;jettySize=auto;html=1;entryX=0;entryY=0.5;entryDx=0;entryDy=0;fontSize=13;fontStyle=1" edge="1" parent="1" source="-ZYimBQSAgGT6lgqVuGh-16" target="-ZYimBQSAgGT6lgqVuGh-18">
          <mxGeometry relative="1" as="geometry" />
        </mxCell>
        <mxCell id="-ZYimBQSAgGT6lgqVuGh-44" value="1" style="edgeLabel;html=1;align=center;verticalAlign=middle;resizable=0;points=[];fontSize=13;fontStyle=1" vertex="1" connectable="0" parent="-ZYimBQSAgGT6lgqVuGh-37">
          <mxGeometry x="-0.4004" y="1" relative="1" as="geometry">
            <mxPoint as="offset" />
          </mxGeometry>
        </mxCell>
        <mxCell id="-ZYimBQSAgGT6lgqVuGh-43" style="edgeStyle=orthogonalEdgeStyle;rounded=0;orthogonalLoop=1;jettySize=auto;html=1;entryX=0.5;entryY=0;entryDx=0;entryDy=0;fontSize=13;fontStyle=1" edge="1" parent="1" source="-ZYimBQSAgGT6lgqVuGh-16" target="-ZYimBQSAgGT6lgqVuGh-42">
          <mxGeometry relative="1" as="geometry" />
        </mxCell>
        <mxCell id="-ZYimBQSAgGT6lgqVuGh-16" value="" style="rhombus;whiteSpace=wrap;html=1;fillColor=#CCCCCC;fontSize=13;fontStyle=1" vertex="1" parent="1">
          <mxGeometry x="167.87" y="330" width="60" height="50" as="geometry" />
        </mxCell>
        <mxCell id="-ZYimBQSAgGT6lgqVuGh-38" style="edgeStyle=orthogonalEdgeStyle;rounded=0;orthogonalLoop=1;jettySize=auto;html=1;entryX=0;entryY=0.5;entryDx=0;entryDy=0;fontSize=13;fontStyle=1" edge="1" parent="1" source="-ZYimBQSAgGT6lgqVuGh-18" target="-ZYimBQSAgGT6lgqVuGh-23">
          <mxGeometry relative="1" as="geometry" />
        </mxCell>
        <mxCell id="-ZYimBQSAgGT6lgqVuGh-18" value="Get Active Tickets" style="rounded=1;whiteSpace=wrap;html=1;fillColor=#d5e8d4;strokeColor=#82b366;fontSize=13;fontStyle=1" vertex="1" parent="1">
          <mxGeometry x="270" y="340" width="104.5" height="30" as="geometry" />
        </mxCell>
        <mxCell id="-ZYimBQSAgGT6lgqVuGh-20" value="&lt;span style=&quot;font-size: 13px;&quot;&gt;User Interface&lt;/span&gt;" style="shape=ext;double=1;rounded=0;whiteSpace=wrap;html=1;fillColor=#f8cecc;strokeColor=#b85450;fontSize=13;fontStyle=1" vertex="1" parent="1">
          <mxGeometry x="-270" width="119.88" height="30" as="geometry" />
        </mxCell>
        <mxCell id="-ZYimBQSAgGT6lgqVuGh-21" value="&lt;span style=&quot;font-size: 13px;&quot;&gt;Service&lt;/span&gt;" style="shape=ext;double=1;rounded=0;whiteSpace=wrap;html=1;fillColor=#d5e8d4;strokeColor=#82b366;fontSize=13;fontStyle=1" vertex="1" parent="1">
          <mxGeometry x="-270" y="50" width="119.88" height="30" as="geometry" />
        </mxCell>
        <mxCell id="-ZYimBQSAgGT6lgqVuGh-22" value="&lt;span style=&quot;font-size: 13px;&quot;&gt;Repository&lt;/span&gt;" style="shape=ext;double=1;rounded=0;whiteSpace=wrap;html=1;fillColor=#dae8fc;strokeColor=#6c8ebf;fontSize=13;fontStyle=1" vertex="1" parent="1">
          <mxGeometry x="-270" y="100" width="119.88" height="30" as="geometry" />
        </mxCell>
        <mxCell id="-ZYimBQSAgGT6lgqVuGh-39" style="edgeStyle=orthogonalEdgeStyle;rounded=0;orthogonalLoop=1;jettySize=auto;html=1;entryX=0;entryY=0.5;entryDx=0;entryDy=0;fontSize=13;fontStyle=1" edge="1" parent="1" source="-ZYimBQSAgGT6lgqVuGh-23" target="-ZYimBQSAgGT6lgqVuGh-24">
          <mxGeometry relative="1" as="geometry" />
        </mxCell>
        <mxCell id="-ZYimBQSAgGT6lgqVuGh-23" value="Read Active Tickets" style="rounded=1;whiteSpace=wrap;html=1;fillColor=#dae8fc;strokeColor=#6c8ebf;fontSize=13;fontStyle=1" vertex="1" parent="1">
          <mxGeometry x="410" y="340" width="115.5" height="30" as="geometry" />
        </mxCell>
        <mxCell id="-ZYimBQSAgGT6lgqVuGh-88" value="" style="edgeStyle=orthogonalEdgeStyle;rounded=0;orthogonalLoop=1;jettySize=auto;html=1;fontSize=13;fontStyle=1" edge="1" parent="1" source="-ZYimBQSAgGT6lgqVuGh-24" target="-ZYimBQSAgGT6lgqVuGh-86">
          <mxGeometry relative="1" as="geometry" />
        </mxCell>
        <mxCell id="-ZYimBQSAgGT6lgqVuGh-24" value="Display Tickets" style="rounded=1;whiteSpace=wrap;html=1;fillColor=#f8cecc;strokeColor=#b85450;fontSize=13;fontStyle=1" vertex="1" parent="1">
          <mxGeometry x="560" y="340" width="104.5" height="30" as="geometry" />
        </mxCell>
        <mxCell id="-ZYimBQSAgGT6lgqVuGh-34" value="Database" style="whiteSpace=wrap;html=1;aspect=fixed;fillColor=#fff2cc;strokeColor=#d6b656;fontSize=13;fontStyle=1" vertex="1" parent="1">
          <mxGeometry x="-270" y="200" width="130" height="130" as="geometry" />
        </mxCell>
        <mxCell id="-ZYimBQSAgGT6lgqVuGh-36" value="Note:&lt;br style=&quot;border-color: var(--border-color); font-size: 13px;&quot;&gt;Any Repository Block Interfaces with the Database directly" style="whiteSpace=wrap;html=1;shape=mxgraph.basic.document;fontSize=13;fontStyle=1" vertex="1" parent="1">
          <mxGeometry x="-110" width="100" height="100" as="geometry" />
        </mxCell>
        <mxCell id="-ZYimBQSAgGT6lgqVuGh-54" style="edgeStyle=orthogonalEdgeStyle;rounded=0;orthogonalLoop=1;jettySize=auto;html=1;entryX=0;entryY=0.5;entryDx=0;entryDy=0;fontSize=13;fontStyle=1" edge="1" parent="1" source="-ZYimBQSAgGT6lgqVuGh-42" target="-ZYimBQSAgGT6lgqVuGh-52">
          <mxGeometry relative="1" as="geometry" />
        </mxCell>
        <mxCell id="-ZYimBQSAgGT6lgqVuGh-61" value="2" style="edgeLabel;html=1;align=center;verticalAlign=middle;resizable=0;points=[];fontSize=13;fontStyle=1" vertex="1" connectable="0" parent="-ZYimBQSAgGT6lgqVuGh-54">
          <mxGeometry x="-0.6608" relative="1" as="geometry">
            <mxPoint as="offset" />
          </mxGeometry>
        </mxCell>
        <mxCell id="-ZYimBQSAgGT6lgqVuGh-71" style="edgeStyle=orthogonalEdgeStyle;rounded=0;orthogonalLoop=1;jettySize=auto;html=1;entryX=0.5;entryY=0;entryDx=0;entryDy=0;fontSize=13;fontStyle=1" edge="1" parent="1" source="-ZYimBQSAgGT6lgqVuGh-42" target="-ZYimBQSAgGT6lgqVuGh-70">
          <mxGeometry relative="1" as="geometry" />
        </mxCell>
        <mxCell id="-ZYimBQSAgGT6lgqVuGh-42" value="" style="rhombus;whiteSpace=wrap;html=1;fillColor=#CCCCCC;fontSize=13;fontStyle=1" vertex="1" parent="1">
          <mxGeometry x="167.87" y="450" width="60" height="50" as="geometry" />
        </mxCell>
        <mxCell id="-ZYimBQSAgGT6lgqVuGh-59" style="edgeStyle=orthogonalEdgeStyle;rounded=0;orthogonalLoop=1;jettySize=auto;html=1;entryX=0;entryY=0.5;entryDx=0;entryDy=0;fontSize=13;fontStyle=1" edge="1" parent="1" source="-ZYimBQSAgGT6lgqVuGh-49" target="-ZYimBQSAgGT6lgqVuGh-50">
          <mxGeometry relative="1" as="geometry" />
        </mxCell>
        <mxCell id="-ZYimBQSAgGT6lgqVuGh-49" value="Get Ticket By Id" style="rounded=1;whiteSpace=wrap;html=1;fillColor=#d5e8d4;strokeColor=#82b366;fontSize=13;fontStyle=1" vertex="1" parent="1">
          <mxGeometry x="396" y="460" width="104.5" height="30" as="geometry" />
        </mxCell>
        <mxCell id="-ZYimBQSAgGT6lgqVuGh-60" style="edgeStyle=orthogonalEdgeStyle;rounded=0;orthogonalLoop=1;jettySize=auto;html=1;entryX=0;entryY=0.5;entryDx=0;entryDy=0;fontSize=13;fontStyle=1" edge="1" parent="1" source="-ZYimBQSAgGT6lgqVuGh-50" target="-ZYimBQSAgGT6lgqVuGh-51">
          <mxGeometry relative="1" as="geometry" />
        </mxCell>
        <mxCell id="-ZYimBQSAgGT6lgqVuGh-50" value="Read Ticket" style="rounded=1;whiteSpace=wrap;html=1;fillColor=#dae8fc;strokeColor=#6c8ebf;fontSize=13;fontStyle=1" vertex="1" parent="1">
          <mxGeometry x="540" y="460" width="115.5" height="30" as="geometry" />
        </mxCell>
        <mxCell id="-ZYimBQSAgGT6lgqVuGh-90" style="edgeStyle=orthogonalEdgeStyle;rounded=0;orthogonalLoop=1;jettySize=auto;html=1;entryX=0;entryY=0.5;entryDx=0;entryDy=0;fontSize=13;fontStyle=1" edge="1" parent="1" source="-ZYimBQSAgGT6lgqVuGh-51" target="-ZYimBQSAgGT6lgqVuGh-89">
          <mxGeometry relative="1" as="geometry" />
        </mxCell>
        <mxCell id="-ZYimBQSAgGT6lgqVuGh-51" value="Display Ticket" style="rounded=1;whiteSpace=wrap;html=1;fillColor=#f8cecc;strokeColor=#b85450;fontSize=13;fontStyle=1" vertex="1" parent="1">
          <mxGeometry x="690" y="460" width="104.5" height="30" as="geometry" />
        </mxCell>
        <mxCell id="-ZYimBQSAgGT6lgqVuGh-55" style="edgeStyle=orthogonalEdgeStyle;rounded=0;orthogonalLoop=1;jettySize=auto;html=1;entryX=0;entryY=0.5;entryDx=0;entryDy=0;fontSize=13;fontStyle=1" edge="1" parent="1" source="-ZYimBQSAgGT6lgqVuGh-52" target="-ZYimBQSAgGT6lgqVuGh-49">
          <mxGeometry relative="1" as="geometry" />
        </mxCell>
        <mxCell id="-ZYimBQSAgGT6lgqVuGh-111" style="edgeStyle=orthogonalEdgeStyle;rounded=0;orthogonalLoop=1;jettySize=auto;html=1;exitX=0.75;exitY=0;exitDx=0;exitDy=0;entryX=0.842;entryY=1;entryDx=0;entryDy=0;entryPerimeter=0;fontSize=13;fontStyle=1" edge="1" parent="1" source="-ZYimBQSAgGT6lgqVuGh-52" target="-ZYimBQSAgGT6lgqVuGh-57">
          <mxGeometry relative="1" as="geometry" />
        </mxCell>
        <mxCell id="-ZYimBQSAgGT6lgqVuGh-52" value="Get Input" style="rounded=1;whiteSpace=wrap;html=1;fillColor=#f8cecc;strokeColor=#b85450;fontSize=13;fontStyle=1" vertex="1" parent="1">
          <mxGeometry x="260" y="460" width="104.5" height="30" as="geometry" />
        </mxCell>
        <mxCell id="-ZYimBQSAgGT6lgqVuGh-58" style="edgeStyle=orthogonalEdgeStyle;rounded=0;orthogonalLoop=1;jettySize=auto;html=1;fontSize=13;fontStyle=1" edge="1" parent="1" source="-ZYimBQSAgGT6lgqVuGh-57" target="-ZYimBQSAgGT6lgqVuGh-52">
          <mxGeometry relative="1" as="geometry">
            <Array as="points">
              <mxPoint x="302" y="450" />
              <mxPoint x="300" y="450" />
            </Array>
          </mxGeometry>
        </mxCell>
        <mxCell id="-ZYimBQSAgGT6lgqVuGh-57" value="Invalid" style="rounded=1;whiteSpace=wrap;html=1;fillColor=#f8cecc;strokeColor=#b85450;fontSize=13;fontStyle=1" vertex="1" parent="1">
          <mxGeometry x="250" y="400" width="104.5" height="30" as="geometry" />
        </mxCell>
        <mxCell id="-ZYimBQSAgGT6lgqVuGh-65" style="edgeStyle=orthogonalEdgeStyle;rounded=0;orthogonalLoop=1;jettySize=auto;html=1;entryX=0.5;entryY=0;entryDx=0;entryDy=0;fontSize=13;fontStyle=1" edge="1" parent="1" source="-ZYimBQSAgGT6lgqVuGh-63" target="-ZYimBQSAgGT6lgqVuGh-16">
          <mxGeometry relative="1" as="geometry" />
        </mxCell>
        <mxCell id="-ZYimBQSAgGT6lgqVuGh-67" style="edgeStyle=orthogonalEdgeStyle;rounded=0;orthogonalLoop=1;jettySize=auto;html=1;entryX=0;entryY=0.5;entryDx=0;entryDy=0;fontSize=13;fontStyle=1" edge="1" parent="1" source="-ZYimBQSAgGT6lgqVuGh-63" target="-ZYimBQSAgGT6lgqVuGh-66">
          <mxGeometry relative="1" as="geometry" />
        </mxCell>
        <mxCell id="-ZYimBQSAgGT6lgqVuGh-69" value="0" style="edgeLabel;html=1;align=center;verticalAlign=middle;resizable=0;points=[];fontSize=13;fontStyle=1" vertex="1" connectable="0" parent="-ZYimBQSAgGT6lgqVuGh-67">
          <mxGeometry x="-0.5666" y="1" relative="1" as="geometry">
            <mxPoint as="offset" />
          </mxGeometry>
        </mxCell>
        <mxCell id="-ZYimBQSAgGT6lgqVuGh-63" value="" style="rhombus;whiteSpace=wrap;html=1;fillColor=#CCCCCC;fontSize=13;fontStyle=1" vertex="1" parent="1">
          <mxGeometry x="167.87" y="220" width="60" height="50" as="geometry" />
        </mxCell>
        <mxCell id="-ZYimBQSAgGT6lgqVuGh-85" style="edgeStyle=orthogonalEdgeStyle;rounded=0;orthogonalLoop=1;jettySize=auto;html=1;exitX=1;exitY=0.5;exitDx=0;exitDy=0;entryX=0;entryY=0.5;entryDx=0;entryDy=0;fontSize=13;fontStyle=1" edge="1" parent="1" source="-ZYimBQSAgGT6lgqVuGh-66" target="-ZYimBQSAgGT6lgqVuGh-84">
          <mxGeometry relative="1" as="geometry" />
        </mxCell>
        <mxCell id="-ZYimBQSAgGT6lgqVuGh-66" value="Invalid" style="rounded=1;whiteSpace=wrap;html=1;fillColor=#f8cecc;strokeColor=#b85450;fontSize=13;fontStyle=1" vertex="1" parent="1">
          <mxGeometry x="270" y="230" width="104.5" height="30" as="geometry" />
        </mxCell>
        <mxCell id="-ZYimBQSAgGT6lgqVuGh-75" style="edgeStyle=orthogonalEdgeStyle;rounded=0;orthogonalLoop=1;jettySize=auto;html=1;entryX=1;entryY=0.5;entryDx=0;entryDy=0;fontSize=13;fontStyle=1" edge="1" parent="1" source="-ZYimBQSAgGT6lgqVuGh-70" target="-ZYimBQSAgGT6lgqVuGh-72">
          <mxGeometry relative="1" as="geometry" />
        </mxCell>
        <mxCell id="-ZYimBQSAgGT6lgqVuGh-83" value="3" style="edgeLabel;html=1;align=center;verticalAlign=middle;resizable=0;points=[];fontSize=13;fontStyle=1" vertex="1" connectable="0" parent="-ZYimBQSAgGT6lgqVuGh-75">
          <mxGeometry x="-0.2214" y="2" relative="1" as="geometry">
            <mxPoint as="offset" />
          </mxGeometry>
        </mxCell>
        <mxCell id="-ZYimBQSAgGT6lgqVuGh-95" style="edgeStyle=orthogonalEdgeStyle;rounded=0;orthogonalLoop=1;jettySize=auto;html=1;entryX=0.5;entryY=0;entryDx=0;entryDy=0;fontSize=13;fontStyle=1" edge="1" parent="1" source="-ZYimBQSAgGT6lgqVuGh-70" target="-ZYimBQSAgGT6lgqVuGh-94">
          <mxGeometry relative="1" as="geometry" />
        </mxCell>
        <mxCell id="-ZYimBQSAgGT6lgqVuGh-70" value="" style="rhombus;whiteSpace=wrap;html=1;fillColor=#CCCCCC;fontSize=13;fontStyle=1" vertex="1" parent="1">
          <mxGeometry x="167.88" y="560" width="60" height="50" as="geometry" />
        </mxCell>
        <mxCell id="-ZYimBQSAgGT6lgqVuGh-76" style="edgeStyle=orthogonalEdgeStyle;rounded=0;orthogonalLoop=1;jettySize=auto;html=1;exitX=0.25;exitY=1;exitDx=0;exitDy=0;entryX=0.187;entryY=-0.067;entryDx=0;entryDy=0;entryPerimeter=0;fontSize=13;fontStyle=1" edge="1" parent="1" source="-ZYimBQSAgGT6lgqVuGh-72" target="-ZYimBQSAgGT6lgqVuGh-73">
          <mxGeometry relative="1" as="geometry" />
        </mxCell>
        <mxCell id="-ZYimBQSAgGT6lgqVuGh-80" style="edgeStyle=orthogonalEdgeStyle;rounded=0;orthogonalLoop=1;jettySize=auto;html=1;fontSize=13;fontStyle=1" edge="1" parent="1" source="-ZYimBQSAgGT6lgqVuGh-72">
          <mxGeometry relative="1" as="geometry">
            <mxPoint x="-30" y="585" as="targetPoint" />
          </mxGeometry>
        </mxCell>
        <mxCell id="-ZYimBQSAgGT6lgqVuGh-72" value="Get Inputs" style="rounded=1;whiteSpace=wrap;html=1;fillColor=#f8cecc;strokeColor=#b85450;fontSize=13;fontStyle=1" vertex="1" parent="1">
          <mxGeometry y="570" width="119.38" height="30" as="geometry" />
        </mxCell>
        <mxCell id="-ZYimBQSAgGT6lgqVuGh-77" style="edgeStyle=orthogonalEdgeStyle;rounded=0;orthogonalLoop=1;jettySize=auto;html=1;exitX=0.75;exitY=0;exitDx=0;exitDy=0;entryX=0.704;entryY=1.099;entryDx=0;entryDy=0;entryPerimeter=0;fontSize=13;fontStyle=1" edge="1" parent="1" source="-ZYimBQSAgGT6lgqVuGh-73" target="-ZYimBQSAgGT6lgqVuGh-72">
          <mxGeometry relative="1" as="geometry" />
        </mxCell>
        <mxCell id="-ZYimBQSAgGT6lgqVuGh-73" value="Validate Inputs" style="rounded=1;whiteSpace=wrap;html=1;fillColor=#d5e8d4;strokeColor=#82b366;fontSize=13;fontStyle=1" vertex="1" parent="1">
          <mxGeometry x="7.439999999999998" y="640" width="104.5" height="30" as="geometry" />
        </mxCell>
        <mxCell id="-ZYimBQSAgGT6lgqVuGh-91" style="edgeStyle=orthogonalEdgeStyle;rounded=0;orthogonalLoop=1;jettySize=auto;html=1;fontSize=13;fontStyle=1" edge="1" parent="1" source="-ZYimBQSAgGT6lgqVuGh-78">
          <mxGeometry relative="1" as="geometry">
            <mxPoint x="-170" y="585" as="targetPoint" />
          </mxGeometry>
        </mxCell>
        <mxCell id="-ZYimBQSAgGT6lgqVuGh-78" value="Generate Ticket" style="rounded=1;whiteSpace=wrap;html=1;fillColor=#d5e8d4;strokeColor=#82b366;fontSize=13;fontStyle=1" vertex="1" parent="1">
          <mxGeometry x="-140" y="570" width="104.5" height="30" as="geometry" />
        </mxCell>
        <mxCell id="-ZYimBQSAgGT6lgqVuGh-93" style="edgeStyle=orthogonalEdgeStyle;rounded=0;orthogonalLoop=1;jettySize=auto;html=1;entryX=0.5;entryY=1;entryDx=0;entryDy=0;fontSize=13;fontStyle=1" edge="1" parent="1" source="-ZYimBQSAgGT6lgqVuGh-79" target="-ZYimBQSAgGT6lgqVuGh-92">
          <mxGeometry relative="1" as="geometry" />
        </mxCell>
        <mxCell id="-ZYimBQSAgGT6lgqVuGh-79" value="Write Ticket" style="rounded=1;whiteSpace=wrap;html=1;fillColor=#dae8fc;strokeColor=#6c8ebf;fontSize=13;fontStyle=1" vertex="1" parent="1">
          <mxGeometry x="-290" y="570" width="115.5" height="30" as="geometry" />
        </mxCell>
        <mxCell id="-ZYimBQSAgGT6lgqVuGh-84" value="Reset to A" style="rounded=1;whiteSpace=wrap;html=1;fillColor=#f8cecc;strokeColor=#b85450;fontSize=13;fontStyle=1" vertex="1" parent="1">
          <mxGeometry x="410" y="230" width="92.25" height="30" as="geometry" />
        </mxCell>
        <mxCell id="-ZYimBQSAgGT6lgqVuGh-86" value="Reset to A" style="rounded=1;whiteSpace=wrap;html=1;fillColor=#f8cecc;strokeColor=#b85450;fontSize=13;fontStyle=1" vertex="1" parent="1">
          <mxGeometry x="700" y="340" width="92.25" height="30" as="geometry" />
        </mxCell>
        <mxCell id="-ZYimBQSAgGT6lgqVuGh-89" value="Reset to A" style="rounded=1;whiteSpace=wrap;html=1;fillColor=#f8cecc;strokeColor=#b85450;fontSize=13;fontStyle=1" vertex="1" parent="1">
          <mxGeometry x="831.63" y="460" width="92.25" height="30" as="geometry" />
        </mxCell>
        <mxCell id="-ZYimBQSAgGT6lgqVuGh-92" value="Reset to A" style="rounded=1;whiteSpace=wrap;html=1;fillColor=#f8cecc;strokeColor=#b85450;fontSize=13;fontStyle=1" vertex="1" parent="1">
          <mxGeometry x="-284.5" y="500" width="110" height="30" as="geometry" />
        </mxCell>
        <mxCell id="-ZYimBQSAgGT6lgqVuGh-102" style="edgeStyle=orthogonalEdgeStyle;rounded=0;orthogonalLoop=1;jettySize=auto;html=1;entryX=0;entryY=0.5;entryDx=0;entryDy=0;fontSize=13;fontStyle=1" edge="1" parent="1" source="-ZYimBQSAgGT6lgqVuGh-94" target="-ZYimBQSAgGT6lgqVuGh-96">
          <mxGeometry relative="1" as="geometry" />
        </mxCell>
        <mxCell id="-ZYimBQSAgGT6lgqVuGh-103" value="4" style="edgeLabel;html=1;align=center;verticalAlign=middle;resizable=0;points=[];fontSize=13;fontStyle=1" vertex="1" connectable="0" parent="-ZYimBQSAgGT6lgqVuGh-102">
          <mxGeometry x="-0.2821" y="-1" relative="1" as="geometry">
            <mxPoint as="offset" />
          </mxGeometry>
        </mxCell>
        <mxCell id="-ZYimBQSAgGT6lgqVuGh-114" style="edgeStyle=orthogonalEdgeStyle;rounded=0;orthogonalLoop=1;jettySize=auto;html=1;entryX=0.5;entryY=0;entryDx=0;entryDy=0;fontSize=13;fontStyle=1" edge="1" parent="1" source="-ZYimBQSAgGT6lgqVuGh-94" target="-ZYimBQSAgGT6lgqVuGh-113">
          <mxGeometry relative="1" as="geometry" />
        </mxCell>
        <mxCell id="-ZYimBQSAgGT6lgqVuGh-94" value="" style="rhombus;whiteSpace=wrap;html=1;fillColor=#CCCCCC;fontSize=13;fontStyle=1" vertex="1" parent="1">
          <mxGeometry x="167.88" y="660" width="60" height="50" as="geometry" />
        </mxCell>
        <mxCell id="-ZYimBQSAgGT6lgqVuGh-101" style="edgeStyle=orthogonalEdgeStyle;rounded=0;orthogonalLoop=1;jettySize=auto;html=1;entryX=0;entryY=0.5;entryDx=0;entryDy=0;fontSize=13;fontStyle=1" edge="1" parent="1" source="-ZYimBQSAgGT6lgqVuGh-96" target="-ZYimBQSAgGT6lgqVuGh-98">
          <mxGeometry relative="1" as="geometry" />
        </mxCell>
        <mxCell id="-ZYimBQSAgGT6lgqVuGh-96" value="Choose Ticket" style="rounded=1;whiteSpace=wrap;html=1;fillColor=#f8cecc;strokeColor=#b85450;fontSize=13;fontStyle=1" vertex="1" parent="1">
          <mxGeometry x="270" y="670" width="119.38" height="30" as="geometry" />
        </mxCell>
        <mxCell id="-ZYimBQSAgGT6lgqVuGh-97" style="edgeStyle=orthogonalEdgeStyle;rounded=0;orthogonalLoop=1;jettySize=auto;html=1;exitX=0.25;exitY=1;exitDx=0;exitDy=0;entryX=0.187;entryY=-0.067;entryDx=0;entryDy=0;entryPerimeter=0;fontSize=13;fontStyle=1" edge="1" parent="1" source="-ZYimBQSAgGT6lgqVuGh-98" target="-ZYimBQSAgGT6lgqVuGh-100">
          <mxGeometry relative="1" as="geometry" />
        </mxCell>
        <mxCell id="-ZYimBQSAgGT6lgqVuGh-109" style="edgeStyle=orthogonalEdgeStyle;rounded=0;orthogonalLoop=1;jettySize=auto;html=1;entryX=0;entryY=0.5;entryDx=0;entryDy=0;fontSize=13;fontStyle=1" edge="1" parent="1" source="-ZYimBQSAgGT6lgqVuGh-98" target="-ZYimBQSAgGT6lgqVuGh-104">
          <mxGeometry relative="1" as="geometry" />
        </mxCell>
        <mxCell id="-ZYimBQSAgGT6lgqVuGh-98" value="Get Inputs" style="rounded=1;whiteSpace=wrap;html=1;fillColor=#f8cecc;strokeColor=#b85450;fontSize=13;fontStyle=1" vertex="1" parent="1">
          <mxGeometry x="440.62" y="670" width="119.38" height="30" as="geometry" />
        </mxCell>
        <mxCell id="-ZYimBQSAgGT6lgqVuGh-99" style="edgeStyle=orthogonalEdgeStyle;rounded=0;orthogonalLoop=1;jettySize=auto;html=1;exitX=0.75;exitY=0;exitDx=0;exitDy=0;entryX=0.704;entryY=1.099;entryDx=0;entryDy=0;entryPerimeter=0;fontSize=13;fontStyle=1" edge="1" parent="1" source="-ZYimBQSAgGT6lgqVuGh-100" target="-ZYimBQSAgGT6lgqVuGh-98">
          <mxGeometry relative="1" as="geometry" />
        </mxCell>
        <mxCell id="-ZYimBQSAgGT6lgqVuGh-100" value="Validate Inputs" style="rounded=1;whiteSpace=wrap;html=1;fillColor=#d5e8d4;strokeColor=#82b366;fontSize=13;fontStyle=1" vertex="1" parent="1">
          <mxGeometry x="448.06" y="740" width="104.5" height="30" as="geometry" />
        </mxCell>
        <mxCell id="-ZYimBQSAgGT6lgqVuGh-110" style="edgeStyle=orthogonalEdgeStyle;rounded=0;orthogonalLoop=1;jettySize=auto;html=1;entryX=0;entryY=0.5;entryDx=0;entryDy=0;fontSize=13;fontStyle=1" edge="1" parent="1" source="-ZYimBQSAgGT6lgqVuGh-104" target="-ZYimBQSAgGT6lgqVuGh-106">
          <mxGeometry relative="1" as="geometry" />
        </mxCell>
        <mxCell id="-ZYimBQSAgGT6lgqVuGh-104" value="Update Ticket" style="rounded=1;whiteSpace=wrap;html=1;fillColor=#d5e8d4;strokeColor=#82b366;fontSize=13;fontStyle=1" vertex="1" parent="1">
          <mxGeometry x="595.5" y="670" width="104.5" height="30" as="geometry" />
        </mxCell>
        <mxCell id="-ZYimBQSAgGT6lgqVuGh-105" style="edgeStyle=orthogonalEdgeStyle;rounded=0;orthogonalLoop=1;jettySize=auto;html=1;entryX=0.5;entryY=1;entryDx=0;entryDy=0;fontSize=13;fontStyle=1" edge="1" parent="1" source="-ZYimBQSAgGT6lgqVuGh-106" target="-ZYimBQSAgGT6lgqVuGh-107">
          <mxGeometry relative="1" as="geometry" />
        </mxCell>
        <mxCell id="-ZYimBQSAgGT6lgqVuGh-106" value="Write Ticket" style="rounded=1;whiteSpace=wrap;html=1;fillColor=#dae8fc;strokeColor=#6c8ebf;fontSize=13;fontStyle=1" vertex="1" parent="1">
          <mxGeometry x="740" y="670" width="115.5" height="30" as="geometry" />
        </mxCell>
        <mxCell id="-ZYimBQSAgGT6lgqVuGh-107" value="Reset to A" style="rounded=1;whiteSpace=wrap;html=1;fillColor=#f8cecc;strokeColor=#b85450;fontSize=13;fontStyle=1" vertex="1" parent="1">
          <mxGeometry x="745.5" y="600" width="110" height="30" as="geometry" />
        </mxCell>
        <mxCell id="-ZYimBQSAgGT6lgqVuGh-117" style="edgeStyle=orthogonalEdgeStyle;rounded=0;orthogonalLoop=1;jettySize=auto;html=1;entryX=1;entryY=0.5;entryDx=0;entryDy=0;fontSize=13;fontStyle=1" edge="1" parent="1" source="-ZYimBQSAgGT6lgqVuGh-113" target="-ZYimBQSAgGT6lgqVuGh-115">
          <mxGeometry relative="1" as="geometry" />
        </mxCell>
        <mxCell id="-ZYimBQSAgGT6lgqVuGh-119" value="5" style="edgeLabel;html=1;align=center;verticalAlign=middle;resizable=0;points=[];fontSize=13;fontStyle=1" vertex="1" connectable="0" parent="-ZYimBQSAgGT6lgqVuGh-117">
          <mxGeometry x="0.0085" y="2" relative="1" as="geometry">
            <mxPoint as="offset" />
          </mxGeometry>
        </mxCell>
        <mxCell id="-ZYimBQSAgGT6lgqVuGh-113" value="" style="rhombus;whiteSpace=wrap;html=1;fillColor=#CCCCCC;fontSize=13;fontStyle=1" vertex="1" parent="1">
          <mxGeometry x="167.88" y="750" width="60" height="50" as="geometry" />
        </mxCell>
        <mxCell id="-ZYimBQSAgGT6lgqVuGh-118" style="edgeStyle=orthogonalEdgeStyle;rounded=0;orthogonalLoop=1;jettySize=auto;html=1;fontSize=13;fontStyle=1" edge="1" parent="1" source="-ZYimBQSAgGT6lgqVuGh-115">
          <mxGeometry relative="1" as="geometry">
            <mxPoint x="-30" y="775" as="targetPoint" />
          </mxGeometry>
        </mxCell>
        <mxCell id="-ZYimBQSAgGT6lgqVuGh-115" value="Confirm Exit" style="rounded=1;whiteSpace=wrap;html=1;fillColor=#f8cecc;strokeColor=#b85450;fontSize=13;fontStyle=1" vertex="1" parent="1">
          <mxGeometry x="7.439999999999998" y="760" width="119.38" height="30" as="geometry" />
        </mxCell>
        <mxCell id="-ZYimBQSAgGT6lgqVuGh-116" value="Exit Screen" style="rounded=1;whiteSpace=wrap;html=1;fillColor=#f8cecc;strokeColor=#b85450;fontSize=13;fontStyle=1" vertex="1" parent="1">
          <mxGeometry x="-154.88" y="760" width="119.38" height="30" as="geometry" />
        </mxCell>
      </root>
    </mxGraphModel>
  </diagram>
</mxfile>
